<svg viewBox="0,0 200,200" xmlns:xlink="http://www.w3.org/1999/xlink" xmlns="http://www.w3.org/2000/svg"><defs><clipPath id="ring"><path d="M200,100A 100, 100, 0, 1, 1, 197.81, 79.21
                    L 188.03, 81.29
                    A 90, 90, 0, 1, 0, 190, 100 z"></path></clipPath><filter id="blur" x="0" y="0"><feGaussianBlur in="SourceGraphic" stdDeviation="3"></feGaussianBlur></filter><path d="M 250, 100
                      A 150, 150, 0, 0, 1, 246.72, 131.19
                      L 100, 100
                      A 0, 0, 0, 0, 0, 100, 100 z" id="p"></path><g clip-path="url(#ring)" id="r1"><g filter="url(#blur)" transform="rotate(-6 100 100)"><use fill-opacity="0" transform="rotate(0 100 100)" xlink:href="#p"></use><use fill-opacity="0" transform="rotate(12 100 100)" xlink:href="#p"></use><use fill-opacity="0" transform="rotate(24 100 100)" xlink:href="#p"></use><use fill-opacity="0" transform="rotate(36 100 100)" xlink:href="#p"></use><use fill-opacity="0" transform="rotate(48 100 100)" xlink:href="#p"></use><use fill-opacity="0" transform="rotate(60 100 100)" xlink:href="#p"></use><use fill-opacity="0" transform="rotate(72 100 100)" xlink:href="#p"></use><use fill-opacity="0" transform="rotate(84 100 100)" xlink:href="#p"></use><use fill-opacity="0" transform="rotate(96 100 100)" xlink:href="#p"></use><use fill-opacity="1" transform="rotate(108 100 100)" xlink:href="#p"></use><use fill-opacity="1" transform="rotate(120 100 100)" xlink:href="#p"></use><use fill-opacity="1" transform="rotate(132 100 100)" xlink:href="#p"></use><use fill-opacity="1" transform="rotate(144 100 100)" xlink:href="#p"></use><use fill-opacity="1" transform="rotate(156 100 100)" xlink:href="#p"></use><use fill-opacity="1" transform="rotate(168 100 100)" xlink:href="#p"></use><use fill-opacity="1" transform="rotate(180 100 100)" xlink:href="#p"></use><use fill-opacity="1" transform="rotate(192 100 100)" xlink:href="#p"></use><use fill-opacity="1" transform="rotate(204 100 100)" xlink:href="#p"></use><use fill-opacity="1" transform="rotate(216 100 100)" xlink:href="#p"></use><use fill-opacity="1" transform="rotate(228 100 100)" xlink:href="#p"></use><use fill-opacity="1" transform="rotate(240 100 100)" xlink:href="#p"></use><use fill-opacity="1" transform="rotate(252 100 100)" xlink:href="#p"></use><use fill-opacity="1" transform="rotate(264 100 100)" xlink:href="#p"></use><use fill-opacity="1" transform="rotate(276 100 100)" xlink:href="#p"></use><use fill-opacity="1" transform="rotate(288 100 100)" xlink:href="#p"></use><use fill-opacity="1" transform="rotate(300 100 100)" xlink:href="#p"></use><use fill-opacity="1" transform="rotate(312 100 100)" xlink:href="#p"></use><use fill-opacity="1" transform="rotate(324 100 100)" xlink:href="#p"></use><use fill-opacity="1" transform="rotate(336 100 100)" xlink:href="#p"></use><use fill-opacity="1" transform="rotate(348 100 100)" xlink:href="#p"></use></g></g></defs><use fill="cyan" transform="scale(0.5,0.5)" xlink:href="#r1"></use></svg>